{"title":"LW","uid":15086674,"size":5913222206,"categoryP":"video","categoryS":"music_videos","magnet":"?xt=urn:btih:7b34536fa14bcf0d1ba3b8d304b655ed23ba1193&amp;dn=LW&amp;tr=udp%3A%2F%2Ftracker.leechers-paradise.org%3A6969&amp;tr=udp%3A%2F%2Fzer0day.ch%3A1337&amp;tr=udp%3A%2F%2Fopen.demonii.com%3A1337&amp;tr=udp%3A%2F%2Ftracker.coppersurfer.tk%3A6969&amp;tr=udp%3A%2F%2Fexodus.desync.com%3A6969","seeders":0,"leechers":0,"uploader":"user101966","files":1,"time":1466889196,"description":"General\r\nComplete name                            : D:MusicVideoFolk, Country, WesternLWLucinda Williams Live Austin City LimitsLucinda.Williams.Austin.City.Limits.1998.XviD.480p.AC3.448.avi\r\nFormat                                   : AVI\r\nFormat/Info                              : Audio Video Interleave\r\nFormat profile                           : OpenDML\r\nFile size                                : 5.51 GiB\r\nDuration                                 : 1h 14mn\r\nOverall bit rate                         : 10.6 Mbps\r\nWriting library                          : VirtualDub build 35491/release\r\n\r\nVideo\r\nID                                       : 0\r\nFormat                                   : MPEG-4 Visual\r\nFormat profile                           : Advanced   \r\nFormat settings, BVOP                    : 1\r\nFormat settings, QPel                    : No\r\nFormat settings, GMC                     : No warppoints\r\nFormat settings, Matrix                  : Custom\r\nCodec ID                                 : XVID\r\nCodec ID/Hint                            : XviD\r\nDuration                                 : 1h 14mn\r\nBit rate                                 : 10.1 Mbps\r\nWidth                                    : 720 pixels\r\nHeight                                   : 480 pixels\r\nDisplay aspect ratio                     : 3:2\r\nFrame rate                               : 59.940 fps\r\nStandard                                 : NTSC\r\nColor space                              : YUV\r\nChroma subsampling                       : 4:2:0\r\nBit depth                                : 8 bits\r\nScan type                                : Progressive\r\nCompression mode                         : Lossy\r\nBits/(Pixel*Frame)                       : 0.489\r\nStream size                              : 5.27 GiB (96%)\r\nWriting library                          : XviD 64\r\n\r\nAudio\r\nID                                       : 1\r\nFormat                                   : AC-3\r\nFormat/Info                              : Audio Coding 3\r\nMode extension                           : CM (complete main)\r\nFormat settings, Endianness              : Big\r\nCodec ID                                 : 2000\r\nDuration                                 : 1h 14mn\r\nBit rate mode                            : Constant\r\nBit rate                                 : 448 Kbps\r\nChannel(s)                               : 6 channels\r\nChannel positions                        : Front: L C R, Side: L R, LFE\r\nSampling rate                            : 48.0 KHz\r\nBit depth                                : 16 bits\r\nCompression mode                         : Lossy\r\nStream size                              : 238 MiB (4%)\r\nAlignment                                : Aligned on interleaves\r\nInterleave, duration                     : 32 ms (1.92 video frames)\r\nInterleave, preload duration             : 512 ms","torrent":{"xt":"urn:btih:7b34536fa14bcf0d1ba3b8d304b655ed23ba1193","amp;dn":"LW","amp;tr":["udp%3A%2F%2Ftracker.leechers-paradise.org%3A6969","udp%3A%2F%2Fzer0day.ch%3A1337","udp%3A%2F%2Fopen.demonii.com%3A1337","udp%3A%2F%2Ftracker.coppersurfer.tk%3A6969","udp%3A%2F%2Fexodus.desync.com%3A6969"],"infoHash":"7b34536fa14bcf0d1ba3b8d304b655ed23ba1193","infoHashBuffer":{"type":"Buffer","data":[123,52,83,111,161,75,207,13,27,163,184,211,4,182,85,237,35,186,17,147]},"announce":[],"urlList":[]}}